<?xml version="1.0" encoding="utf-8"?>
<!-- Generator: Adobe Illustrator 21.0.0, SVG Export Plug-In . SVG Version: 6.00 Build 0)  -->
<svg version="1.1" id="Layer_1" xmlns="http://www.w3.org/2000/svg" xmlns:xlink="http://www.w3.org/1999/xlink" x="0px" y="0px"
	 viewBox="0 0 1000 1000" style="enable-background:new 0 0 1000 1000;" xml:space="preserve">
<style type="text/css">
	.st0{fill:#3E454C;}
	.st1{fill:#FF7F66;}
	.st2{fill:#7ECEFD;}
	.st3{fill:#2185C5;}
	.st4{fill:#FFFFFF;}
	.st5{fill:#E6E6E6;}
	.st6{fill:#898989;}
	.st7{fill:#B3B3B3;}
	.st8{fill:#CCCCCC;}
	.st9{fill:#999999;}
</style>
<g>
	<rect x="-591.2" y="521" class="st0" width="66" height="66"/>
	<rect x="-327.6" y="521" class="st1" width="66" height="66"/>
	<rect x="-459.2" y="521" class="st2" width="66" height="66"/>
	<rect x="-525.2" y="521" class="st3" width="66" height="66"/>
	<rect x="-393.6" y="521" class="st4" width="66" height="66"/>
</g>
<g>
	<path class="st5" d="M-769.8-154.5l-188.9-188.9c-7.8-7.8-20.5-7.8-28.3,0l-9.6,9.6c-7.8,7.8-7.8,20.5,0,28.3l188.9,188.9
		c7.8,7.8,20.5,7.8,28.3,0l9.6-9.6C-762-134-762-146.8-769.8-154.5z"/>
	<path class="st5" d="M-958.9-296.5L-770-485.4c7.8-7.8,7.8-20.5,0-28.3l-9.6-9.6c-7.8-7.8-20.5-7.8-28.3,0l-188.9,188.9
		c-7.8,7.8-7.8,20.5,0,28.3l9.6,9.6C-979.4-288.7-966.6-288.7-958.9-296.5z"/>
	<path class="st5" d="M-346.6-485.4l188.9,188.9c7.8,7.8,20.5,7.8,28.3,0l9.6-9.6c7.8-7.8,7.8-20.5,0-28.3l-188.9-188.9
		c-7.8-7.8-20.5-7.8-28.3,0l-9.6,9.6C-354.4-505.9-354.4-493.2-346.6-485.4z"/>
	<path class="st5" d="M-157.6-343.4l-188.9,188.9c-7.8,7.8-7.8,20.5,0,28.3l9.6,9.6c7.8,7.8,20.5,7.8,28.3,0l188.9-188.9
		c7.8-7.8,7.8-20.5,0-28.3l-9.6-9.6C-137.1-351.2-149.8-351.2-157.6-343.4z"/>
	<path class="st5" d="M-496.7-537.2l-172.4,413.9c-4.2,10.2,0.6,21.9,10.8,26.1l12.6,5.2c10.2,4.2,21.9-0.6,26.1-10.8l172.4-413.9
		c4.2-10.2-0.6-21.9-10.8-26.1l-12.6-5.2C-480.8-552.2-492.5-547.4-496.7-537.2z"/>
</g>
<path class="st2" d="M-670.8,1236.8l-188.9-188.9c-7.8-7.8-20.5-7.8-28.3,0l-9.6,9.6c-7.8,7.8-7.8,20.5,0,28.3l188.9,188.9
	c7.8,7.8,20.5,7.8,28.3,0l9.6-9.6C-663,1257.3-663,1244.5-670.8,1236.8z"/>
<path class="st2" d="M-859.9,1094.8L-671,905.9c7.8-7.8,7.8-20.5,0-28.3l-9.6-9.6c-7.8-7.8-20.5-7.8-28.3,0l-188.9,188.9
	c-7.8,7.8-7.8,20.5,0,28.3l9.6,9.6C-880.4,1102.6-867.6,1102.6-859.9,1094.8z"/>
<path class="st2" d="M-247.6,905.9l188.9,188.9c7.8,7.8,20.5,7.8,28.3,0l9.6-9.6c7.8-7.8,7.8-20.5,0-28.3L-209.7,868
	c-7.8-7.8-20.5-7.8-28.3,0l-9.6,9.6C-255.4,885.4-255.4,898.1-247.6,905.9z"/>
<path class="st2" d="M-58.6,1047.9l-188.9,188.9c-7.8,7.8-7.8,20.5,0,28.3l9.6,9.6c7.8,7.8,20.5,7.8,28.3,0l188.9-188.9
	c7.8-7.8,7.8-20.5,0-28.3l-9.6-9.6C-38.1,1040.1-50.8,1040.1-58.6,1047.9z"/>
<path class="st0" d="M-397.7,854.1L-570.2,1268c-4.2,10.2,0.6,21.9,10.8,26.1l12.6,5.2c10.2,4.2,21.9-0.6,26.1-10.8l172.4-413.9
	c4.2-10.2-0.6-21.9-10.8-26.1l-12.6-5.2C-381.8,839.1-393.5,843.9-397.7,854.1z"/>
<g>
	
		<ellipse transform="matrix(0.8693 -0.4943 0.4943 0.8693 -191.055 1700.423)" class="st5" cx="3119.7" cy="1211.5" rx="437.4" ry="49.9"/>
	<g>
		<g>
			<path class="st5" d="M3408.6,1003.8c0,0,13.9-62.9,82.4-76.5c68.5-13.6,165.5,12,165.5,12s-33.2-10.7-84.2,87
				c-51.1,97.7-127.5,46.6-127.5,46.6L3408.6,1003.8z"/>
		</g>
		<path class="st5" d="M3362.2,1046.8l18.9,35.4c0,0,23.4-22.5,63.8-9.3l-36.2-69.1C3408.6,1003.8,3404.2,1033.3,3362.2,1046.8z"/>
	</g>
	<path class="st5" d="M3252.1,1065.9c0,0,8.5,69.8,62.7,107.8l129-89.3l-45.1-84.5L3252.1,1065.9z"/>
	<path class="st5" d="M3462,1037.3c0,0,38.1,15.1,81.6-33.5C3543.6,1003.8,3526.2,1085.7,3462,1037.3z"/>
</g>
<g>
	
		<ellipse transform="matrix(0.8693 -0.4943 0.4943 0.8693 -208.6891 278.4007)" class="st2" cx="422.1" cy="533.8" rx="437.4" ry="49.9"/>
	<g>
		<g>
			<path class="st0" d="M711,326.1c0,0,13.9-62.9,82.4-76.5s165.5,12,165.5,12s-33.2-10.7-84.2,87s-127.5,46.6-127.5,46.6L711,326.1
				z"/>
		</g>
		<path class="st0" d="M664.5,369.1l18.9,35.4c0,0,23.4-22.5,63.8-9.3L711,326.1C711,326.1,706.6,355.7,664.5,369.1z"/>
	</g>
	<path class="st2" d="M554.5,388.2c0,0,8.5,69.8,62.7,107.8l129-89.3l-45.1-84.5L554.5,388.2z"/>
	<path class="st6" d="M764.4,359.6c0,0,38.1,15.1,81.6-33.5C846,326.1,828.6,408.1,764.4,359.6z"/>
</g>
<g>
	<path class="st5" d="M3307.4,2032.4l-292.2-628.3c-2.8-5.6-9.3-10.3-15.9-10.3h-9.3c-6.5,0-13.1,4.7-15.9,10.3l-292.2,628.3
		c-5.6,12.1,1.9,24.3,15.9,24.3h102.7c18.7,0,28.9-11.2,33.6-22.4l33.6-74.7l56-127l70-154h0.9l71,154l56,127l33.6,73.8
		c8.4,17.7,15.9,23.3,32.7,23.3h103.6C3305.5,2056.7,3313,2044.6,3307.4,2032.4z"/>
	<path class="st5" d="M3307.4,1894.1c-57.9-14.8-78.7-41.4-78.7-41.4l-65.3,16.8l-0.3,22.9"/>
	
		<ellipse transform="matrix(0.9999 -1.091056e-02 1.091056e-02 0.9999 -20.4818 32.3465)" class="st5" cx="2954.4" cy="1893.4" rx="267.3" ry="30.5"/>
	<path class="st5" d="M3163.1,1892.4l-0.3,22.9l64.9,18.4c0,0,21.4-26.2,79.7-39.5"/>
	<path class="st5" d="M3068.3,1854.8c0,0-16.1,39.8,1.6,76.2l95.4-9.5l0.9-58.5L3068.3,1854.8z"/>
</g>
<g>
	
		<ellipse transform="matrix(1.178837e-02 -0.9999 0.9999 1.178837e-02 -368.291 3469.8354)" class="st5" cx="1571.3" cy="1921.2" rx="12.7" ry="17.2"/>
	<path class="st0" d="M1646.6,2032.4l-292.2-628.3c-2.8-5.6-9.3-10.3-15.9-10.3h-9.3c-6.5,0-13.1,4.7-15.9,10.3l-292.2,628.3
		c-5.6,12.1,1.9,24.3,15.9,24.3h102.7c18.7,0,28.9-11.2,33.6-22.4l33.6-74.7l56-127l70-154h0.9l71,154l56,127l33.6,73.8
		c8.4,17.7,15.9,23.3,32.7,23.3h103.6C1644.7,2056.7,1652.2,2044.6,1646.6,2032.4z"/>
	
		<ellipse transform="matrix(0.9999 -1.091056e-02 1.091056e-02 0.9999 -20.5684 14.355)" class="st2" cx="1305.4" cy="1892.3" rx="267.3" ry="30.5"/>
	<path class="st7" d="M1514.1,1891.3l-0.3,22.9l64.9,18.4c0,0,21.4-26.2,79.7-39.5"/>
	<path class="st8" d="M1658.4,1893c-57.9-14.8-78.7-41.4-78.7-41.4l-65.3,16.8l-0.3,22.9"/>
	
		<ellipse transform="matrix(1.178837e-02 -0.9999 0.9999 1.178837e-02 -345.9259 3433.7739)" class="st9" cx="1564.3" cy="1891.9" rx="12.7" ry="17.2"/>
	<path class="st2" d="M1419.3,1853.7c0,0-16.1,39.8,1.6,76.2l95.4-9.5l0.9-58.5L1419.3,1853.7z"/>
</g>
</svg>
